<mxfile host="app.diagrams.net" modified="2024-02-28T16:38:07.534Z" agent="Mozilla/5.0 (Macintosh; Intel Mac OS X 10_15_7) AppleWebKit/537.36 (KHTML, like Gecko) Chrome/122.0.0.0 Safari/537.36" etag="oM18iT26waJPiGc5t8dF" version="23.1.7" type="github">
  <diagram id="C5RBs43oDa-KdzZeNtuy" name="Page-1">
    <mxGraphModel dx="1062" dy="679" grid="1" gridSize="10" guides="1" tooltips="1" connect="1" arrows="1" fold="1" page="1" pageScale="1" pageWidth="900" pageHeight="1600" math="0" shadow="0">
      <root>
        <mxCell id="WIyWlLk6GJQsqaUBKTNV-0" />
        <mxCell id="WIyWlLk6GJQsqaUBKTNV-1" parent="WIyWlLk6GJQsqaUBKTNV-0" />
        <mxCell id="VojOFuKZzLpmrFIeVaak-18" style="edgeStyle=orthogonalEdgeStyle;rounded=0;orthogonalLoop=1;jettySize=auto;html=1;" edge="1" parent="WIyWlLk6GJQsqaUBKTNV-1" source="VojOFuKZzLpmrFIeVaak-0" target="VojOFuKZzLpmrFIeVaak-13">
          <mxGeometry relative="1" as="geometry">
            <Array as="points">
              <mxPoint x="785" y="670" />
              <mxPoint x="785" y="670" />
            </Array>
          </mxGeometry>
        </mxCell>
        <mxCell id="VojOFuKZzLpmrFIeVaak-72" style="edgeStyle=orthogonalEdgeStyle;rounded=0;orthogonalLoop=1;jettySize=auto;html=1;entryX=0.5;entryY=1;entryDx=0;entryDy=0;" edge="1" parent="WIyWlLk6GJQsqaUBKTNV-1" source="VojOFuKZzLpmrFIeVaak-0" target="VojOFuKZzLpmrFIeVaak-47">
          <mxGeometry relative="1" as="geometry" />
        </mxCell>
        <mxCell id="VojOFuKZzLpmrFIeVaak-75" style="edgeStyle=orthogonalEdgeStyle;rounded=0;orthogonalLoop=1;jettySize=auto;html=1;entryX=1;entryY=0.5;entryDx=0;entryDy=0;" edge="1" parent="WIyWlLk6GJQsqaUBKTNV-1" source="VojOFuKZzLpmrFIeVaak-0" target="VojOFuKZzLpmrFIeVaak-1">
          <mxGeometry relative="1" as="geometry" />
        </mxCell>
        <mxCell id="VojOFuKZzLpmrFIeVaak-0" value="client" style="shape=cylinder3;whiteSpace=wrap;html=1;boundedLbl=1;backgroundOutline=1;size=15;" vertex="1" parent="WIyWlLk6GJQsqaUBKTNV-1">
          <mxGeometry x="720" y="435" width="130" height="160" as="geometry" />
        </mxCell>
        <mxCell id="VojOFuKZzLpmrFIeVaak-10" style="edgeStyle=orthogonalEdgeStyle;rounded=0;orthogonalLoop=1;jettySize=auto;html=1;" edge="1" parent="WIyWlLk6GJQsqaUBKTNV-1" source="VojOFuKZzLpmrFIeVaak-1" target="VojOFuKZzLpmrFIeVaak-0">
          <mxGeometry relative="1" as="geometry">
            <Array as="points">
              <mxPoint x="650" y="540" />
              <mxPoint x="650" y="540" />
            </Array>
          </mxGeometry>
        </mxCell>
        <mxCell id="VojOFuKZzLpmrFIeVaak-1" value="User Input" style="swimlane;whiteSpace=wrap;html=1;align=center;" vertex="1" parent="WIyWlLk6GJQsqaUBKTNV-1">
          <mxGeometry x="450" y="410" width="140" height="210" as="geometry">
            <mxRectangle x="30" y="185" width="70" height="30" as="alternateBounds" />
          </mxGeometry>
        </mxCell>
        <mxCell id="VojOFuKZzLpmrFIeVaak-3" value="user_id" style="text;html=1;align=center;verticalAlign=middle;resizable=0;points=[];autosize=1;strokeColor=none;fillColor=none;labelPosition=center;verticalLabelPosition=middle;" vertex="1" parent="VojOFuKZzLpmrFIeVaak-1">
          <mxGeometry x="10" y="40" width="60" height="30" as="geometry" />
        </mxCell>
        <mxCell id="VojOFuKZzLpmrFIeVaak-6" value="audio message" style="text;html=1;align=center;verticalAlign=middle;resizable=0;points=[];autosize=1;strokeColor=none;fillColor=none;" vertex="1" parent="VojOFuKZzLpmrFIeVaak-1">
          <mxGeometry x="10" y="70" width="100" height="30" as="geometry" />
        </mxCell>
        <mxCell id="VojOFuKZzLpmrFIeVaak-8" value="authentication" style="text;html=1;align=center;verticalAlign=middle;resizable=0;points=[];autosize=1;strokeColor=none;fillColor=none;" vertex="1" parent="VojOFuKZzLpmrFIeVaak-1">
          <mxGeometry x="10" y="100" width="100" height="30" as="geometry" />
        </mxCell>
        <mxCell id="VojOFuKZzLpmrFIeVaak-9" value="description" style="text;html=1;align=center;verticalAlign=middle;resizable=0;points=[];autosize=1;strokeColor=none;fillColor=none;" vertex="1" parent="VojOFuKZzLpmrFIeVaak-1">
          <mxGeometry x="10" y="130" width="80" height="30" as="geometry" />
        </mxCell>
        <mxCell id="VojOFuKZzLpmrFIeVaak-13" value="React post functions" style="swimlane;whiteSpace=wrap;html=1;align=center;" vertex="1" parent="WIyWlLk6GJQsqaUBKTNV-1">
          <mxGeometry x="710" y="685" width="190" height="165" as="geometry">
            <mxRectangle x="270" y="470" width="170" height="30" as="alternateBounds" />
          </mxGeometry>
        </mxCell>
        <mxCell id="VojOFuKZzLpmrFIeVaak-14" value="post User Input(text msg)" style="text;html=1;align=left;verticalAlign=middle;resizable=0;points=[];autosize=1;strokeColor=none;fillColor=none;labelPosition=center;verticalLabelPosition=middle;" vertex="1" parent="VojOFuKZzLpmrFIeVaak-13">
          <mxGeometry x="10" y="50" width="160" height="30" as="geometry" />
        </mxCell>
        <mxCell id="VojOFuKZzLpmrFIeVaak-80" value="audio to text" style="text;html=1;align=center;verticalAlign=middle;resizable=0;points=[];autosize=1;strokeColor=none;fillColor=none;" vertex="1" parent="VojOFuKZzLpmrFIeVaak-13">
          <mxGeometry y="73" width="90" height="30" as="geometry" />
        </mxCell>
        <mxCell id="VojOFuKZzLpmrFIeVaak-81" value="text to audio" style="text;html=1;align=center;verticalAlign=middle;resizable=0;points=[];autosize=1;strokeColor=none;fillColor=none;" vertex="1" parent="VojOFuKZzLpmrFIeVaak-13">
          <mxGeometry y="103" width="90" height="30" as="geometry" />
        </mxCell>
        <mxCell id="VojOFuKZzLpmrFIeVaak-74" style="edgeStyle=orthogonalEdgeStyle;rounded=0;orthogonalLoop=1;jettySize=auto;html=1;entryX=1;entryY=0.5;entryDx=0;entryDy=0;" edge="1" parent="WIyWlLk6GJQsqaUBKTNV-1" source="VojOFuKZzLpmrFIeVaak-19" target="VojOFuKZzLpmrFIeVaak-47">
          <mxGeometry relative="1" as="geometry">
            <Array as="points">
              <mxPoint x="1080" y="260" />
            </Array>
          </mxGeometry>
        </mxCell>
        <mxCell id="VojOFuKZzLpmrFIeVaak-76" style="edgeStyle=orthogonalEdgeStyle;rounded=0;orthogonalLoop=1;jettySize=auto;html=1;" edge="1" parent="WIyWlLk6GJQsqaUBKTNV-1" source="VojOFuKZzLpmrFIeVaak-19" target="VojOFuKZzLpmrFIeVaak-59">
          <mxGeometry relative="1" as="geometry">
            <Array as="points">
              <mxPoint x="1190" y="510" />
              <mxPoint x="1190" y="510" />
            </Array>
          </mxGeometry>
        </mxCell>
        <mxCell id="VojOFuKZzLpmrFIeVaak-19" value="Flask server" style="shape=cylinder3;whiteSpace=wrap;html=1;boundedLbl=1;backgroundOutline=1;size=15;" vertex="1" parent="WIyWlLk6GJQsqaUBKTNV-1">
          <mxGeometry x="990" y="435" width="130" height="160" as="geometry" />
        </mxCell>
        <mxCell id="VojOFuKZzLpmrFIeVaak-20" style="edgeStyle=orthogonalEdgeStyle;rounded=0;orthogonalLoop=1;jettySize=auto;html=1;entryX=0;entryY=0.5;entryDx=0;entryDy=0;entryPerimeter=0;" edge="1" parent="WIyWlLk6GJQsqaUBKTNV-1" source="VojOFuKZzLpmrFIeVaak-13" target="VojOFuKZzLpmrFIeVaak-19">
          <mxGeometry relative="1" as="geometry">
            <Array as="points">
              <mxPoint x="920" y="760" />
              <mxPoint x="920" y="515" />
            </Array>
          </mxGeometry>
        </mxCell>
        <mxCell id="VojOFuKZzLpmrFIeVaak-79" style="edgeStyle=orthogonalEdgeStyle;rounded=0;orthogonalLoop=1;jettySize=auto;html=1;" edge="1" parent="WIyWlLk6GJQsqaUBKTNV-1" source="VojOFuKZzLpmrFIeVaak-47" target="VojOFuKZzLpmrFIeVaak-19">
          <mxGeometry relative="1" as="geometry">
            <Array as="points">
              <mxPoint x="1055" y="290" />
            </Array>
          </mxGeometry>
        </mxCell>
        <mxCell id="VojOFuKZzLpmrFIeVaak-47" value="React get functions" style="swimlane;whiteSpace=wrap;html=1;align=center;" vertex="1" parent="WIyWlLk6GJQsqaUBKTNV-1">
          <mxGeometry x="690" y="150" width="190" height="220" as="geometry">
            <mxRectangle x="270" y="470" width="170" height="30" as="alternateBounds" />
          </mxGeometry>
        </mxCell>
        <mxCell id="VojOFuKZzLpmrFIeVaak-48" value="post User Input" style="text;html=1;align=center;verticalAlign=middle;resizable=0;points=[];autosize=1;strokeColor=none;fillColor=none;labelPosition=center;verticalLabelPosition=middle;" vertex="1" parent="VojOFuKZzLpmrFIeVaak-47">
          <mxGeometry x="10" y="40" width="100" height="30" as="geometry" />
        </mxCell>
        <mxCell id="VojOFuKZzLpmrFIeVaak-49" value="get message all time" style="text;html=1;align=center;verticalAlign=middle;resizable=0;points=[];autosize=1;strokeColor=none;fillColor=none;" vertex="1" parent="VojOFuKZzLpmrFIeVaak-47">
          <mxGeometry x="10" y="70" width="130" height="30" as="geometry" />
        </mxCell>
        <mxCell id="VojOFuKZzLpmrFIeVaak-71" value="get message and audio" style="text;html=1;align=center;verticalAlign=middle;resizable=0;points=[];autosize=1;strokeColor=none;fillColor=none;" vertex="1" parent="VojOFuKZzLpmrFIeVaak-47">
          <mxGeometry x="10" y="100" width="150" height="30" as="geometry" />
        </mxCell>
        <mxCell id="VojOFuKZzLpmrFIeVaak-51" value="Backend functions" style="swimlane;whiteSpace=wrap;html=1;align=center;" vertex="1" parent="WIyWlLk6GJQsqaUBKTNV-1">
          <mxGeometry x="980" y="685" width="190" height="230" as="geometry">
            <mxRectangle x="270" y="470" width="170" height="30" as="alternateBounds" />
          </mxGeometry>
        </mxCell>
        <mxCell id="VojOFuKZzLpmrFIeVaak-55" value="call open_ai API" style="text;html=1;align=left;verticalAlign=middle;resizable=0;points=[];autosize=1;strokeColor=none;fillColor=none;" vertex="1" parent="VojOFuKZzLpmrFIeVaak-51">
          <mxGeometry x="10" y="40" width="110" height="30" as="geometry" />
        </mxCell>
        <mxCell id="VojOFuKZzLpmrFIeVaak-60" value="(database handling .etc)" style="text;html=1;align=left;verticalAlign=middle;resizable=0;points=[];autosize=1;strokeColor=none;fillColor=none;" vertex="1" parent="VojOFuKZzLpmrFIeVaak-51">
          <mxGeometry x="10" y="85" width="150" height="30" as="geometry" />
        </mxCell>
        <mxCell id="VojOFuKZzLpmrFIeVaak-70" value="get message all time" style="text;html=1;align=center;verticalAlign=middle;resizable=0;points=[];autosize=1;strokeColor=none;fillColor=none;" vertex="1" parent="VojOFuKZzLpmrFIeVaak-51">
          <mxGeometry y="130" width="130" height="30" as="geometry" />
        </mxCell>
        <mxCell id="VojOFuKZzLpmrFIeVaak-58" style="edgeStyle=orthogonalEdgeStyle;rounded=0;orthogonalLoop=1;jettySize=auto;html=1;entryX=0.395;entryY=0;entryDx=0;entryDy=0;entryPerimeter=0;" edge="1" parent="WIyWlLk6GJQsqaUBKTNV-1" source="VojOFuKZzLpmrFIeVaak-19" target="VojOFuKZzLpmrFIeVaak-51">
          <mxGeometry relative="1" as="geometry" />
        </mxCell>
        <mxCell id="VojOFuKZzLpmrFIeVaak-68" style="edgeStyle=orthogonalEdgeStyle;rounded=0;orthogonalLoop=1;jettySize=auto;html=1;" edge="1" parent="WIyWlLk6GJQsqaUBKTNV-1">
          <mxGeometry relative="1" as="geometry">
            <mxPoint x="1250" y="530" as="sourcePoint" />
            <mxPoint x="1120" y="530" as="targetPoint" />
            <Array as="points">
              <mxPoint x="1190" y="530" />
              <mxPoint x="1190" y="530" />
            </Array>
          </mxGeometry>
        </mxCell>
        <mxCell id="VojOFuKZzLpmrFIeVaak-59" value="PostgreSQL database" style="shape=cylinder3;whiteSpace=wrap;html=1;boundedLbl=1;backgroundOutline=1;size=15;" vertex="1" parent="WIyWlLk6GJQsqaUBKTNV-1">
          <mxGeometry x="1250" y="435" width="130" height="160" as="geometry" />
        </mxCell>
        <mxCell id="VojOFuKZzLpmrFIeVaak-62" value="Storage" style="swimlane;whiteSpace=wrap;html=1;align=center;" vertex="1" parent="WIyWlLk6GJQsqaUBKTNV-1">
          <mxGeometry x="1230" y="690" width="190" height="130" as="geometry">
            <mxRectangle x="270" y="470" width="170" height="30" as="alternateBounds" />
          </mxGeometry>
        </mxCell>
        <mxCell id="VojOFuKZzLpmrFIeVaak-66" value="&lt;ul&gt;&lt;li&gt;user_id&lt;/li&gt;&lt;li&gt;user message all time&lt;/li&gt;&lt;li&gt;(no audio storage!)&lt;/li&gt;&lt;li&gt;message time stamp&lt;/li&gt;&lt;/ul&gt;" style="text;html=1;align=left;verticalAlign=middle;resizable=0;points=[];autosize=1;strokeColor=none;fillColor=none;" vertex="1" parent="VojOFuKZzLpmrFIeVaak-62">
          <mxGeometry x="5" y="25" width="180" height="100" as="geometry" />
        </mxCell>
        <mxCell id="VojOFuKZzLpmrFIeVaak-65" value="User:" style="text;html=1;align=center;verticalAlign=middle;resizable=0;points=[];autosize=1;strokeColor=none;fillColor=none;" vertex="1" parent="WIyWlLk6GJQsqaUBKTNV-1">
          <mxGeometry x="1235" y="718" width="50" height="30" as="geometry" />
        </mxCell>
        <mxCell id="VojOFuKZzLpmrFIeVaak-69" style="edgeStyle=orthogonalEdgeStyle;rounded=0;orthogonalLoop=1;jettySize=auto;html=1;entryX=0.447;entryY=0.008;entryDx=0;entryDy=0;entryPerimeter=0;" edge="1" parent="WIyWlLk6GJQsqaUBKTNV-1">
          <mxGeometry relative="1" as="geometry">
            <mxPoint x="1314.67" y="595" as="sourcePoint" />
            <mxPoint x="1314.6000000000004" y="691.04" as="targetPoint" />
          </mxGeometry>
        </mxCell>
      </root>
    </mxGraphModel>
  </diagram>
</mxfile>
